<svg width="694" height="656" viewBox="0 0 694 656" fill="none" xmlns="http://www.w3.org/2000/svg">
<path d="M902.942 591.246H0V591.697H902.942V591.246Z" fill="#EBEBEB"/>
<path d="M598.145 625.215H582.452V625.666H598.145V625.215Z" fill="#EBEBEB"/>
<path d="M172.733 606.578H94.7371V607.029H172.733V606.578Z" fill="#EBEBEB"/>
<path d="M200.254 606.578H188.823V607.029H200.254V606.578Z" fill="#EBEBEB"/>
<path d="M406.595 614.199H237.42V614.65H406.595V614.199Z" fill="#EBEBEB"/>
<path d="M818.626 510.7H469.91C467.177 510.695 464.558 509.608 462.625 507.676C460.692 505.744 459.604 503.125 459.598 500.392V10.221C459.627 7.50336 460.725 4.9065 462.655 2.99327C464.586 1.08004 467.192 0.00458448 469.91 0H818.626C821.338 0.0104155 823.937 1.089 825.86 3.00211C827.783 4.91522 828.874 7.5088 828.898 10.221V500.392C828.897 503.119 827.816 505.735 825.89 507.667C823.965 509.599 821.353 510.689 818.626 510.7V510.7ZM469.91 0.361C467.296 0.365758 464.791 1.40611 462.943 3.25418C461.095 5.10226 460.055 7.60743 460.05 10.221V500.392C460.055 503.006 461.095 505.511 462.943 507.359C464.791 509.207 467.296 510.247 469.91 510.252H818.626C821.24 510.247 823.745 509.207 825.593 507.359C827.441 505.511 828.481 503.006 828.486 500.392V10.221C828.481 7.60743 827.441 5.10226 825.593 3.25418C823.745 1.40611 821.24 0.365758 818.626 0.361H469.91Z" fill="#EBEBEB"/>
<path d="M713.252 106.763H533.404V116.009H713.252V106.763Z" fill="#E0E0E0"/>
<path d="M549.603 72.7041H541.675V106.763H549.603V72.7041Z" fill="#EBEBEB"/>
<path d="M587.924 72.7041H579.996V106.763H587.924V72.7041Z" fill="#EBEBEB"/>
<path d="M631.418 71.8143L623.609 73.1621L629.399 106.71L637.208 105.362L631.418 71.8143Z" fill="#EBEBEB"/>
<path d="M559.427 77.1831H551.499V106.763H559.427V77.1831Z" fill="#EBEBEB"/>
<path d="M577.63 77.1831H569.702V106.763H577.63V77.1831Z" fill="#EBEBEB"/>
<path d="M623.608 77.1831H615.68V106.763H623.608V77.1831Z" fill="#EBEBEB"/>
<path d="M598.322 76.1201L590.583 77.8401L597 106.716L604.74 104.996L598.322 76.1201Z" fill="#EBEBEB"/>
<path d="M566.271 71.0071H562.316V106.764H566.271V71.0071Z" fill="#EBEBEB"/>
<path d="M613.387 71.0071H609.432V106.764H613.387V71.0071Z" fill="#EBEBEB"/>
<path d="M696.006 79.802H657.396V106.457H696.006V79.802Z" fill="#EBEBEB"/>
<path d="M533.404 184.994L713.252 184.994V175.748L533.404 175.748V184.994Z" fill="#E0E0E0"/>
<path d="M658.732 175.748H666.66V141.689H658.732V175.748Z" fill="#EBEBEB"/>
<path d="M609.472 174.384L617.281 175.732L623.071 142.184L615.262 140.836L609.472 174.384Z" fill="#EBEBEB"/>
<path d="M687.229 175.748H695.157V146.168H687.229V175.748Z" fill="#EBEBEB"/>
<path d="M669.008 175.748H676.936V146.168H669.008V175.748Z" fill="#EBEBEB"/>
<path d="M623.048 175.748H630.976V146.168H623.048V175.748Z" fill="#EBEBEB"/>
<path d="M641.945 173.994L649.684 175.714L656.101 146.838L648.362 145.118L641.945 173.994Z" fill="#EBEBEB"/>
<path d="M680.385 175.748H684.34V139.991H680.385V175.748Z" fill="#EBEBEB"/>
<path d="M633.269 175.748H637.224V139.991H633.269V175.748Z" fill="#EBEBEB"/>
<path d="M550.668 175.441H589.278V148.786H550.668V175.441Z" fill="#EBEBEB"/>
<path d="M673.866 230.304H572.989V589.928H673.866V230.304Z" fill="#F5F5F5"/>
<path d="M665.161 240.561H581.693V581.765H665.161V240.561Z" fill="#EBEBEB"/>
<path d="M649.956 250.602H596.881V254.123H649.956V250.602Z" fill="#E0E0E0"/>
<path d="M649.956 265.79H596.881V269.311H649.956V265.79Z" fill="#E0E0E0"/>
<path d="M649.956 280.995H596.881V284.516H649.956V280.995Z" fill="#E0E0E0"/>
<path d="M649.956 296.201H596.881V299.722H649.956V296.201Z" fill="#E0E0E0"/>
<path d="M649.956 311.406H596.881V314.927H649.956V311.406Z" fill="#E0E0E0"/>
<path d="M649.956 326.594H596.881V330.115H649.956V326.594Z" fill="#E0E0E0"/>
<path d="M649.956 341.799H596.881V345.32H649.956V341.799Z" fill="#E0E0E0"/>
<path d="M649.956 465.43H596.881V468.951H649.956V465.43Z" fill="#E0E0E0"/>
<path d="M649.956 480.636H596.881V484.157H649.956V480.636Z" fill="#E0E0E0"/>
<path d="M649.956 495.841H596.881V499.362H649.956V495.841Z" fill="#E0E0E0"/>
<path d="M649.956 511.029H596.881V514.55H649.956V511.029Z" fill="#E0E0E0"/>
<path d="M649.956 526.234H596.881V529.755H649.956V526.234Z" fill="#E0E0E0"/>
<path d="M649.956 541.44H596.881V544.961H649.956V541.44Z" fill="#E0E0E0"/>
<path d="M649.956 556.645H596.881V560.166H649.956V556.645Z" fill="#E0E0E0"/>
<path d="M652.576 393.845C652.572 395.198 652.099 396.508 651.238 397.551C650.377 398.595 649.181 399.308 647.854 399.569C646.526 399.83 645.149 399.623 643.957 398.983C642.765 398.343 641.832 397.309 641.316 396.059C640.8 394.808 640.734 393.417 641.128 392.123C641.522 390.829 642.352 389.711 643.478 388.96C644.603 388.21 645.954 387.872 647.3 388.005C648.647 388.138 649.905 388.733 650.862 389.69C651.407 390.236 651.838 390.884 652.133 391.597C652.427 392.31 652.577 393.074 652.576 393.845Z" fill="#E0E0E0"/>
<path d="M570.028 230.304H469.151V589.928H570.028V230.304Z" fill="#F5F5F5"/>
<path d="M561.323 240.561H477.855V581.765H561.323V240.561Z" fill="#EBEBEB"/>
<path d="M546.117 250.602H493.042V254.123H546.117V250.602Z" fill="#E0E0E0"/>
<path d="M546.117 265.79H493.042V269.311H546.117V265.79Z" fill="#E0E0E0"/>
<path d="M546.117 280.995H493.042V284.516H546.117V280.995Z" fill="#E0E0E0"/>
<path d="M546.117 296.201H493.042V299.722H546.117V296.201Z" fill="#E0E0E0"/>
<path d="M546.117 311.406H493.042V314.927H546.117V311.406Z" fill="#E0E0E0"/>
<path d="M546.117 326.594H493.042V330.115H546.117V326.594Z" fill="#E0E0E0"/>
<path d="M546.117 341.799H493.042V345.32H546.117V341.799Z" fill="#E0E0E0"/>
<path d="M546.117 465.43H493.042V468.951H546.117V465.43Z" fill="#E0E0E0"/>
<path d="M546.117 480.636H493.042V484.157H546.117V480.636Z" fill="#E0E0E0"/>
<path d="M546.117 495.841H493.042V499.362H546.117V495.841Z" fill="#E0E0E0"/>
<path d="M546.117 511.029H493.042V514.55H546.117V511.029Z" fill="#E0E0E0"/>
<path d="M546.117 526.234H493.042V529.755H546.117V526.234Z" fill="#E0E0E0"/>
<path d="M546.117 541.44H493.042V544.961H546.117V541.44Z" fill="#E0E0E0"/>
<path d="M546.117 556.645H493.042V560.166H546.117V556.645Z" fill="#E0E0E0"/>
<path d="M548.738 393.845C548.734 395.198 548.261 396.508 547.4 397.551C546.539 398.595 545.343 399.308 544.016 399.569C542.688 399.83 541.311 399.623 540.119 398.983C538.927 398.343 537.994 397.309 537.478 396.059C536.962 394.808 536.896 393.417 537.29 392.123C537.684 390.829 538.514 389.711 539.64 388.96C540.765 388.21 542.116 387.872 543.462 388.005C544.809 388.138 546.067 388.733 547.024 389.69C547.569 390.236 548 390.884 548.295 391.597C548.589 392.31 548.739 393.074 548.738 393.845V393.845Z" fill="#E0E0E0"/>
<path d="M777.704 230.304H676.827V589.928H777.704V230.304Z" fill="#F5F5F5"/>
<path d="M769 240.561H685.532V581.765H769V240.561Z" fill="#EBEBEB"/>
<path d="M662.634 616.239L612.286 611.291V554.514H592.331V611.273L541.766 616.239C539.344 616.477 537.097 617.606 535.461 619.409C533.826 621.211 532.919 623.557 532.917 625.991V633.554H671.446V625.987C671.444 623.56 670.542 621.219 668.914 619.419C667.287 617.618 665.049 616.485 662.634 616.239V616.239Z" fill="#263238"/>
<path opacity="0.1" d="M662.634 616.239L612.286 611.291V554.514H592.331V611.273L541.766 616.239C539.344 616.477 537.097 617.606 535.461 619.409C533.826 621.211 532.919 623.557 532.917 625.991V633.554H671.446V625.987C671.444 623.56 670.542 621.219 668.914 619.419C667.287 617.618 665.049 616.485 662.634 616.239V616.239Z" fill="white"/>
<path d="M538.262 655.968C545.463 655.968 551.3 650.131 551.3 642.93C551.3 635.729 545.463 629.892 538.262 629.892C531.061 629.892 525.224 635.729 525.224 642.93C525.224 650.131 531.061 655.968 538.262 655.968Z" fill="#263238"/>
<path d="M666.136 655.968C673.337 655.968 679.174 650.131 679.174 642.93C679.174 635.729 673.337 629.892 666.136 629.892C658.935 629.892 653.098 635.729 653.098 642.93C653.098 650.131 658.935 655.968 666.136 655.968Z" fill="#263238"/>
<path d="M588.899 506.694H615.807V562.243C615.807 564.221 615.021 566.118 613.623 567.517C612.224 568.915 610.327 569.701 608.349 569.701H596.449C594.471 569.701 592.574 568.915 591.175 567.517C589.777 566.118 588.991 564.221 588.991 562.243V506.694H588.899Z" fill="#263238"/>
<path opacity="0.2" d="M588.899 506.694H615.807V562.243C615.807 564.221 615.021 566.118 613.623 567.517C612.224 568.915 610.327 569.701 608.349 569.701H596.449C594.471 569.701 592.574 568.915 591.175 567.517C589.777 566.118 588.991 564.221 588.991 562.243V506.694H588.899Z" fill="white"/>
<path d="M671.988 397.294C671.988 397.294 657.035 490.622 627.545 506.676H657.523C657.523 506.676 687.157 474.947 696.187 397.294H671.988Z" fill="#263238"/>
<path opacity="0.1" d="M671.988 397.294C671.988 397.294 657.035 490.622 627.545 506.676H657.523C657.523 506.676 687.157 474.947 696.187 397.294H671.988Z" fill="white"/>
<path d="M667.744 513.936H533.332V502.536C533.332 501.35 533.566 500.176 534.019 499.081C534.473 497.985 535.138 496.99 535.977 496.152C536.815 495.313 537.81 494.648 538.906 494.194C540.001 493.741 541.175 493.507 542.361 493.507H658.715C661.11 493.507 663.406 494.458 665.099 496.152C666.793 497.845 667.744 500.141 667.744 502.536V513.936Z" fill="#1664A3"/>
<path d="M529.744 513.936H671.332C672.442 513.936 673.342 513.036 673.342 511.926V505.725C673.342 504.615 672.442 503.715 671.332 503.715H529.744C528.634 503.715 527.734 504.615 527.734 505.725V511.926C527.734 513.036 528.634 513.936 529.744 513.936Z" fill="#263238"/>
<path opacity="0.6" d="M529.744 513.936H671.332C672.442 513.936 673.342 513.036 673.342 511.926V505.725C673.342 504.615 672.442 503.715 671.332 503.715H529.744C528.634 503.715 527.734 504.615 527.734 505.725V511.926C527.734 513.036 528.634 513.936 529.744 513.936Z" fill="white"/>
<path d="M699.726 416.273H651.671C637.603 416.273 628.465 404.986 631.265 390.991L635.003 372.408C637.784 358.485 651.473 347.126 665.54 347.126H713.58C727.666 347.126 736.804 358.413 734.004 372.408L730.266 390.991C727.464 404.987 713.794 416.273 699.726 416.273Z" fill="#1664A3"/>
<path d="M456.381 353.754L443.938 346.729C441.995 345.16 439.703 344.083 437.256 343.587C430.387 343.473 423.523 344.012 416.756 345.194C414.95 345.894 415.6 360.4 416.756 360.634C417.912 360.868 435.88 361.085 437.488 360.634C439.096 360.183 443.014 355.794 443.014 355.794L452.242 361.97L456.381 353.754Z" fill="#D59550"/>
<path d="M512.691 334.323C506.154 340.174 485.603 364.68 482.391 365.565C479.179 366.45 449.122 347.506 449.122 347.506L444.862 359.443C444.862 359.443 473.142 382.721 482.388 384.328C492.411 386.134 525.819 359.046 525.819 359.046L512.691 334.323Z" fill="#1664A3"/>
<path opacity="0.5" d="M525.82 359.045C525.82 359.045 518.289 365.145 509.26 371.361C499.328 378.223 487.589 385.248 482.37 384.327C473.106 382.738 444.826 359.46 444.826 359.46L449.088 347.523C449.088 347.523 479.174 366.431 482.37 365.582C485.566 364.733 506.135 340.191 512.637 334.34L521.237 350.485L525.82 359.045Z" fill="white"/>
<path opacity="0.2" d="M525.82 359.045C525.82 359.045 518.289 365.145 509.26 371.361C510.795 362.855 517.73 354.313 521.233 350.467L525.82 359.045Z" fill="black"/>
<path d="M544.529 410.906C544.529 410.906 514.172 357.849 512.691 334.318C512.691 334.318 523.111 315.049 536.781 310.841C550.451 306.633 586.641 309.035 586.641 309.035C586.641 309.035 615.265 338.406 630.76 405.206L544.529 410.906Z" fill="#1664A3"/>
<path opacity="0.7" d="M544.529 410.906C544.529 410.906 514.172 357.849 512.691 334.318C512.691 334.318 523.111 315.049 536.781 310.841C550.451 306.633 586.641 309.035 586.641 309.035C586.641 309.035 615.265 338.406 630.76 405.206L544.529 410.906Z" fill="white"/>
<path opacity="0.1" d="M565.946 349.46L583.933 345.234L590.488 361.866L583.571 369.252L572.303 365.56L565.946 349.46Z" fill="black"/>
<path d="M560.601 638.018L545.18 640.89L531.49 606.523L546.89 603.67L560.601 638.018Z" fill="#EBB376"/>
<path opacity="0.2" d="M546.894 603.67L531.508 606.541L539.327 626.189L554.46 622.595L546.894 603.67Z" fill="black"/>
<path d="M396.591 643.906L383.751 634.913L398.704 601.089L411.526 610.082L396.591 643.906Z" fill="#EBB376"/>
<path opacity="0.2" d="M411.526 610.081L398.704 601.106L390.162 620.446L403.312 628.736L411.526 610.081Z" fill="black"/>
<path d="M611.13 463.119L561.924 478.198L463.756 508.32C441.124 560.871 413.404 615.806 413.404 615.806L387.724 605.26C387.724 605.26 415.372 512.997 423.444 489.936C436.338 453.136 574.091 428.536 574.091 428.536L611.13 463.119Z" fill="#263238"/>
<path d="M412.121 625.453L380.5 611.76L384.617 597.313L419 613.006L412.121 625.453Z" fill="#1664A3"/>
<path opacity="0.2" d="M412.121 625.453L380.5 611.76L384.617 597.313L419 613.006L412.121 625.453Z" fill="white"/>
<path d="M381.783 633.991C381.718 633.929 381.658 633.862 381.602 633.791L381.402 633.591L381.619 633.772C381.727 633.555 383.912 629.691 383.1 627.686C382.996 627.434 382.836 627.209 382.633 627.028C382.43 626.847 382.188 626.714 381.926 626.639C381.638 626.528 381.321 626.518 381.026 626.61C380.731 626.702 380.475 626.89 380.301 627.145C379.772 628.386 379.695 629.773 380.084 631.064C379.037 629.746 377.718 628.427 376.617 628.373C376.384 628.373 376.154 628.429 375.947 628.535C375.739 628.642 375.56 628.797 375.425 628.987C375.171 629.258 374.999 629.595 374.928 629.959C374.857 630.323 374.891 630.7 375.025 631.046C375.567 631.924 376.417 632.569 377.409 632.852C378.693 633.382 380.032 633.769 381.4 634.008H381.635L381.783 633.991ZM380.898 627.634C381.024 627.453 381.241 627.273 381.747 627.434H381.91C382.043 627.492 382.163 627.576 382.262 627.681C382.362 627.787 382.439 627.912 382.488 628.048C382.994 629.24 382.109 631.569 381.477 632.924C381.417 632.818 381.35 632.715 381.277 632.617C380.586 631.048 380.452 629.289 380.898 627.633V627.634ZM375.625 630.776C375.553 630.553 375.542 630.315 375.593 630.087C375.644 629.858 375.755 629.648 375.914 629.476C375.976 629.38 376.062 629.301 376.163 629.247C376.264 629.193 376.377 629.166 376.492 629.169C377.592 629.169 379.454 631.462 380.646 633.25C377.936 632.636 376.099 631.733 375.625 630.776V630.776Z" fill="#1664A3"/>
<path d="M383.57 632.709L399.678 639.752C399.816 639.804 399.942 639.882 400.048 639.984C400.155 640.085 400.24 640.206 400.299 640.341C400.358 640.476 400.389 640.621 400.391 640.768C400.393 640.915 400.365 641.061 400.31 641.197L395.488 654.308C395.194 654.973 394.652 655.497 393.977 655.767C393.302 656.037 392.547 656.032 391.876 655.753C386.296 653.207 383.768 651.708 376.707 648.529C372.355 646.615 363.578 643.256 358.052 639.698C352.526 636.14 356.246 630.777 358.847 631.788C365.147 634.172 375.281 633.847 380.716 632.438C381.671 632.205 382.676 632.3 383.57 632.709V632.709Z" fill="#263238"/>
<path d="M543.265 639.282C543.265 639.011 542.994 634.569 541.365 633.16C541.109 632.971 540.816 632.837 540.505 632.768C540.193 632.699 539.871 632.696 539.559 632.76C539.238 632.782 538.934 632.908 538.692 633.121C538.451 633.333 538.286 633.619 538.223 633.934C538.284 635.283 538.829 636.566 539.758 637.546C538.454 636.773 536.919 636.485 535.424 636.733C535.211 636.836 535.026 636.99 534.887 637.182C534.749 637.375 534.66 637.598 534.629 637.833C534.531 638.187 534.533 638.562 534.635 638.915C534.737 639.268 534.935 639.586 535.207 639.833C536.094 640.39 537.156 640.596 538.187 640.411C539.574 640.294 540.942 640.021 542.268 639.598C542.288 639.606 542.309 639.611 542.331 639.611C542.353 639.611 542.374 639.606 542.394 639.598V639.49C542.394 639.382 542.773 639.4 542.794 639.346H543.119L543.265 639.282ZM538.949 634.082C538.949 633.865 539.093 633.612 539.599 633.522H539.78C539.925 633.513 540.071 633.535 540.207 633.584C540.344 633.634 540.469 633.711 540.575 633.811C541.568 634.642 541.839 637.111 541.911 638.597L541.586 638.416C540.218 637.332 539.284 635.795 538.95 634.082H538.949ZM535.749 639.282C535.587 639.116 535.47 638.91 535.41 638.686C535.35 638.461 535.348 638.225 535.406 638C535.413 637.884 535.452 637.771 535.519 637.675C535.586 637.58 535.678 637.505 535.785 637.458C536.778 636.988 539.397 638.144 541.347 639.174C538.587 639.896 536.529 639.932 535.75 639.282H535.749Z" fill="#1664A3"/>
<path d="M543.571 637.476L561.124 636.376C561.269 636.361 561.415 636.375 561.555 636.416C561.694 636.458 561.824 636.527 561.936 636.62C562.049 636.712 562.142 636.826 562.21 636.955C562.279 637.083 562.321 637.224 562.334 637.369V637.369L564.14 651.202C564.185 651.931 563.941 652.649 563.461 653.2C562.982 653.751 562.304 654.09 561.576 654.146C555.454 654.417 552.547 654.254 544.781 654.67C540.05 654.959 530.695 655.97 524.158 655.338C517.621 654.706 518.415 648.238 521.251 647.938C527.951 647.179 536.818 642.267 541.007 638.529C541.724 637.909 542.625 637.541 543.571 637.482V637.476Z" fill="#263238"/>
<path d="M514.497 319.316C517.185 318.367 520.116 318.367 522.804 319.316C523.421 321.943 524.899 324.288 527.004 325.976C529.109 327.665 531.718 328.601 534.416 328.634C535.748 328.702 537.084 328.648 538.407 328.472C551.933 326.666 550.452 306.494 550.452 306.494C545.521 306.846 540.601 305.667 536.366 303.117C532.771 301.008 529.634 298.202 527.138 294.864L514.497 319.316Z" fill="#D59550"/>
<path opacity="0.2" d="M514.497 319.316C517.185 318.367 520.116 318.367 522.804 319.316C523.421 321.943 524.899 324.288 527.004 325.976C529.109 327.665 531.718 328.601 534.416 328.634C537.901 320.02 537.45 310.16 536.366 303.117C532.771 301.008 529.634 298.202 527.138 294.864L514.497 319.316Z" fill="black"/>
<path d="M505.07 274.855C511.752 277.744 510.343 285.055 498.97 298.331C492.198 292.317 488.694 278.791 492.36 274.531C496.026 270.271 499.237 272.345 505.07 274.855Z" fill="#263238"/>
<path d="M532.61 281.048C534.705 295.64 536.655 304.073 530.931 312.976C522.299 326.358 503.156 323.45 496.731 309.762C490.988 297.482 488.514 275.685 501.431 267.053C504.269 265.139 507.548 263.981 510.958 263.688C514.368 263.395 517.796 263.977 520.919 265.378C524.041 266.78 526.755 268.955 528.802 271.698C530.849 274.441 532.163 277.661 532.619 281.053L532.61 281.048Z" fill="#D59550"/>
<path d="M511.914 289.465C512.167 290.639 511.733 291.704 510.957 291.865C510.181 292.026 509.386 291.215 509.151 290.059C508.916 288.903 509.314 287.802 510.09 287.639C510.866 287.476 511.589 288.327 511.914 289.465Z" fill="#263238"/>
<path d="M498.587 292.246C498.84 293.402 498.406 294.485 497.648 294.646C496.89 294.807 496.059 293.996 495.842 292.84C495.625 291.684 496.023 290.583 496.799 290.44C497.575 290.297 498.425 291.072 498.587 292.246Z" fill="#263238"/>
<path d="M503.047 291.884C502.394 295.762 501.209 299.53 499.526 303.084C500.449 303.489 501.449 303.688 502.456 303.666C503.464 303.644 504.455 303.403 505.359 302.958L503.047 291.884Z" fill="#D58745"/>
<path d="M524.23 269.473C517.964 273.173 520.293 280.308 533.259 291.902C539.218 285.058 540.988 271.188 536.871 267.45C532.754 263.712 529.702 266.259 524.23 269.473Z" fill="#263238"/>
<path d="M541.856 291.162C541.577 294.859 539.843 298.295 537.034 300.715C533.278 303.875 529.377 301.022 528.709 296.415C528.109 292.261 529.341 285.58 533.928 284.243C538.515 282.906 542.177 286.629 541.856 291.162Z" fill="#E6A054"/>
<path d="M517.892 282.566C517.791 282.657 517.668 282.72 517.535 282.749C517.402 282.777 517.264 282.771 517.134 282.729C516.25 282.392 515.299 282.268 514.358 282.365C513.417 282.462 512.512 282.779 511.716 283.289C511.639 283.349 511.551 283.394 511.456 283.421C511.362 283.447 511.263 283.454 511.166 283.443C511.069 283.431 510.975 283.4 510.889 283.352C510.804 283.304 510.729 283.24 510.668 283.163C510.608 283.085 510.563 282.997 510.537 282.903C510.511 282.808 510.503 282.71 510.515 282.613C510.527 282.515 510.557 282.421 510.605 282.336C510.653 282.251 510.718 282.175 510.795 282.115V282.115C511.779 281.454 512.907 281.037 514.085 280.898C515.263 280.76 516.456 280.905 517.567 281.32C517.659 281.349 517.744 281.395 517.818 281.458C517.891 281.52 517.952 281.596 517.996 281.682C518.04 281.767 518.066 281.861 518.073 281.957C518.08 282.053 518.068 282.15 518.037 282.241V282.241C518.007 282.356 517.958 282.466 517.893 282.566H517.892Z" fill="#263238"/>
<path d="M491.345 286.159C491.193 286.138 491.053 286.068 490.945 285.959C490.84 285.795 490.802 285.596 490.839 285.404C490.876 285.213 490.986 285.043 491.145 284.93V284.93C492.127 284.264 493.255 283.844 494.434 283.706C495.613 283.568 496.807 283.715 497.917 284.135C498.007 284.172 498.089 284.227 498.158 284.297C498.226 284.367 498.28 284.45 498.316 284.541C498.351 284.632 498.368 284.73 498.364 284.828C498.361 284.925 498.338 285.021 498.296 285.11V285.11C498.217 285.289 498.07 285.43 497.887 285.501C497.704 285.572 497.501 285.568 497.321 285.489V285.489C496.424 285.177 495.467 285.08 494.526 285.205C493.585 285.331 492.687 285.675 491.903 286.211C491.811 286.241 491.715 286.252 491.619 286.243C491.523 286.234 491.429 286.206 491.345 286.159V286.159Z" fill="#263238"/>
<path d="M535.228 269.08C535.228 269.08 538.442 262.687 529.991 257.143C521.54 251.599 495.968 255.933 486.812 267.527C477.656 279.121 485.602 286.182 485.602 286.182C485.217 284.263 485.517 282.269 486.451 280.548C487.408 282.494 488.957 284.087 490.875 285.099C493.782 286.399 491.85 285.984 491.85 285.984C491.727 282.929 492.715 279.933 494.631 277.551C496.827 279.706 499.499 281.316 502.431 282.251C503.068 279.73 504.57 277.512 506.675 275.985C506.675 275.985 508.264 281.096 510.702 281.585C510.702 281.585 510.485 277.413 516.12 274.361C516.12 274.361 516.752 278.334 518.341 279.381C518.397 279.514 521.088 270.52 535.228 269.08Z" fill="#263238"/>
<path d="M518.981 300.705C519.127 300.705 519.269 300.747 519.391 300.828C519.479 300.881 519.555 300.95 519.615 301.033C519.675 301.115 519.718 301.209 519.741 301.309C519.764 301.408 519.766 301.511 519.749 301.612C519.731 301.713 519.693 301.809 519.637 301.894C517.253 305.286 513.78 307.761 509.795 308.907C509.699 308.938 509.599 308.95 509.498 308.941C509.398 308.931 509.301 308.902 509.213 308.854C509.125 308.806 509.047 308.74 508.985 308.661C508.923 308.582 508.878 308.491 508.852 308.394C508.794 308.198 508.815 307.987 508.911 307.807C509.007 307.627 509.17 307.491 509.365 307.43C511.243 306.872 513.013 306 514.6 304.852C516.047 303.806 517.312 302.53 518.346 301.074C518.411 300.962 518.503 300.869 518.615 300.805C518.726 300.74 518.853 300.706 518.982 300.705H518.981Z" fill="#263238"/>
<path d="M509.748 297.97C508.127 297.823 506.604 297.133 505.424 296.012C504.244 294.892 503.477 293.405 503.248 291.794C502.49 287.803 504.621 284.029 507.998 283.379C511.375 282.729 514.734 285.474 515.492 289.465C515.866 291.308 515.585 293.225 514.697 294.883C514.299 295.641 513.737 296.301 513.053 296.816C512.37 297.332 511.58 297.689 510.742 297.863C510.414 297.926 510.082 297.962 509.748 297.97ZM508.99 284.245C508.72 284.218 508.447 284.218 508.177 284.245C505.324 284.787 503.518 288.055 504.186 291.469C504.836 294.936 507.686 297.356 510.561 296.796C511.263 296.649 511.924 296.348 512.495 295.914C513.065 295.48 513.532 294.924 513.861 294.286C514.644 292.821 514.887 291.126 514.547 289.5C514.36 288.113 513.708 286.831 512.698 285.863C511.688 284.896 510.378 284.3 508.985 284.173L508.99 284.245Z" fill="#263238"/>
<path d="M494.217 300.59C492.836 300.569 491.507 300.064 490.461 299.163C489.024 297.94 488.059 296.254 487.734 294.395C486.976 290.404 489.106 286.648 492.483 285.995C493.327 285.85 494.193 285.895 495.017 286.126C495.842 286.357 496.605 286.769 497.251 287.331C498.687 288.547 499.651 290.227 499.978 292.08C500.342 293.924 500.061 295.836 499.183 297.498C498.785 298.254 498.223 298.912 497.539 299.425C496.855 299.937 496.066 300.291 495.228 300.46C494.896 300.538 494.557 300.58 494.217 300.586V300.59ZM488.673 294.233C488.955 295.865 489.798 297.347 491.057 298.423C491.588 298.895 492.22 299.238 492.905 299.427C493.589 299.616 494.308 299.646 495.006 299.513C495.704 299.381 496.362 299.09 496.929 298.663C497.497 298.236 497.959 297.685 498.28 297.051C499.043 295.57 499.289 293.877 498.978 292.241C498.667 290.604 497.817 289.119 496.564 288.022C496.027 287.551 495.392 287.205 494.704 287.012C494.017 286.818 493.295 286.78 492.591 286.902C489.72 287.444 487.932 290.712 488.6 294.126L488.673 294.233Z" fill="#263238"/>
<path d="M499.508 292.643C499.405 292.643 499.304 292.612 499.219 292.553C499.168 292.516 499.126 292.468 499.094 292.414C499.062 292.36 499.041 292.3 499.033 292.238C499.024 292.176 499.029 292.112 499.045 292.052C499.062 291.991 499.09 291.934 499.129 291.885C499.717 291.205 500.532 290.761 501.423 290.639C502.314 290.516 503.219 290.721 503.969 291.217C504.074 291.284 504.149 291.389 504.18 291.51C504.21 291.63 504.193 291.758 504.132 291.867C504.1 291.923 504.058 291.972 504.006 292.011C503.955 292.05 503.896 292.078 503.833 292.093C503.771 292.108 503.705 292.111 503.642 292.099C503.578 292.088 503.518 292.064 503.464 292.029C502.909 291.659 502.24 291.5 501.578 291.579C500.916 291.658 500.304 291.972 499.852 292.462C499.811 292.515 499.759 292.558 499.7 292.59C499.641 292.621 499.576 292.639 499.509 292.643H499.508Z" fill="#263238"/>
<path d="M515.021 289.97C514.907 289.967 514.798 289.923 514.714 289.847C514.629 289.771 514.574 289.667 514.559 289.554C514.544 289.441 514.569 289.327 514.631 289.231C514.692 289.135 514.786 289.064 514.895 289.031L528.439 285.239C528.564 285.209 528.695 285.228 528.807 285.292C528.918 285.356 529.001 285.459 529.039 285.582C529.067 285.704 529.047 285.832 528.983 285.939C528.919 286.047 528.816 286.126 528.696 286.16L515.152 289.952L515.021 289.97Z" fill="#263238"/>
<path opacity="0.2" d="M561.916 478.198L463.748 508.32C463.748 508.32 460.14 481.229 477.816 468.59C503.64 450.062 560.598 444.879 560.598 444.879C560.598 444.879 561.305 460.987 561.916 478.198Z" fill="black"/>
<path d="M542.253 447.046L546.045 423.299L544.524 410.91L630.755 405.149L632.055 418.964C632.055 418.964 642.312 467.434 635.197 480.581C622.556 504.058 570.185 503.136 524.697 503.136C534.575 532.03 554.404 605.168 554.404 605.168L530.624 616.004C530.624 616.004 484.736 532.536 474.317 496.404C465.16 464.49 509.783 454.919 542.253 447.046Z" fill="#263238"/>
<path d="M559.806 611.706L527.896 624.692L520.456 611.652L555.743 598.072L559.806 611.706Z" fill="#1664A3"/>
<path opacity="0.2" d="M559.806 611.706L527.896 624.692L520.456 611.652L555.743 598.072L559.806 611.706Z" fill="white"/>
<path d="M603.726 419.849L633.108 418.097L631.338 407.19L602.606 409.032L603.726 419.849Z" fill="black"/>
<path d="M549.405 412.427L544.529 412.752L546.046 423.298L550.254 423.045L549.405 412.427Z" fill="black"/>
<path d="M553.701 422.847L600.275 420.066L599.408 409.231L552.599 412.231L553.701 422.847Z" fill="black"/>
<path d="M567.391 422.992C566.377 422.995 565.4 422.616 564.653 421.931C563.907 421.245 563.446 420.302 563.364 419.292L563.021 415.355C562.925 414.298 563.251 413.245 563.928 412.427C564.604 411.608 565.576 411.09 566.633 410.985L574.994 410.263C575.526 410.212 576.062 410.268 576.571 410.43C577.08 410.591 577.551 410.854 577.956 411.202C578.361 411.544 578.693 411.962 578.935 412.434C579.177 412.905 579.323 413.419 579.365 413.947L579.708 417.884C579.756 418.415 579.698 418.951 579.537 419.46C579.376 419.968 579.115 420.44 578.769 420.846C578.431 421.256 578.013 421.594 577.542 421.839C577.07 422.084 576.554 422.232 576.024 422.273V422.273L567.663 422.973L567.391 422.992ZM575.409 412.048H575.228L566.867 412.77C566.573 412.793 566.287 412.874 566.025 413.008C565.763 413.142 565.53 413.327 565.34 413.553C565.15 413.778 565.006 414.039 564.918 414.32C564.83 414.601 564.799 414.897 564.826 415.19L565.151 419.145C565.204 419.736 565.49 420.282 565.946 420.662C566.401 421.038 566.982 421.225 567.571 421.186L575.932 420.464C576.228 420.439 576.515 420.356 576.779 420.219C577.042 420.083 577.276 419.896 577.467 419.669C577.844 419.215 578.032 418.633 577.991 418.044L577.648 414.107C577.623 413.812 577.54 413.524 577.403 413.26C577.267 412.997 577.08 412.763 576.853 412.572C576.451 412.228 575.937 412.042 575.408 412.048H575.409Z" fill="white"/>
<path d="M573.332 417.519C573.114 417.517 572.905 417.438 572.74 417.295C572.575 417.153 572.466 416.957 572.432 416.742C572.416 416.625 572.424 416.505 572.455 416.391C572.485 416.276 572.538 416.169 572.611 416.075C572.683 415.981 572.773 415.903 572.875 415.844C572.978 415.784 573.092 415.746 573.209 415.731L576.658 415.261C576.776 415.241 576.896 415.244 577.012 415.272C577.129 415.299 577.238 415.35 577.334 415.421C577.43 415.491 577.511 415.581 577.572 415.684C577.632 415.787 577.672 415.901 577.687 416.019C577.718 416.258 577.654 416.5 577.509 416.692C577.364 416.884 577.149 417.012 576.911 417.048L573.444 417.518L573.332 417.519Z" fill="white"/>
<path opacity="0.2" d="M542.614 336.309C542.614 336.309 551.354 367.209 561.914 388.12C561.914 388.12 545.282 357.113 539.07 333.22L542.614 336.309Z" fill="black"/>
<path d="M543.066 342.07L547.566 336.201H549.986L553.435 339.813L553.778 343.93C549.534 345.83 543.069 343.93 543.069 343.93L543.066 342.07Z" fill="#1664A3"/>
<path d="M547.382 337.7C547.287 330.2 546.476 322.726 544.962 315.379L547.382 316.426C549.668 323.798 550.49 331.546 549.802 339.234L547.382 337.7Z" fill="#1664A3"/>
<path d="M544.33 342.251C544.33 342.251 527.337 335.533 525.711 324.517L524.519 326.594C524.519 326.594 528.564 340.517 546.442 343.967L544.33 342.251Z" fill="#1664A3"/>
<path d="M551.409 341.203C553.144 340.925 554.786 340.229 556.192 339.175C557.598 338.121 558.727 336.74 559.481 335.153C563.508 325.889 559.481 312.29 569.449 306.259L575.049 308.246C571.932 310.622 569.654 313.931 568.549 317.691C566.526 325.456 564.233 344.671 551.411 343.949L551.409 341.203Z" fill="#1664A3"/>
<path d="M547.4 303.135L539.075 323.575L538.407 328.469L532.502 325.652L522.985 319.982C522.985 319.982 518.759 325.887 525.82 335.097L532.502 329.571L541.875 339.846L544.53 327.205L555.456 330.726C555.456 330.726 559.825 312.417 559.825 307.18L547.4 303.135Z" fill="#1664A3"/>
<path opacity="0.6" d="M559.824 307.18C559.824 312.453 555.436 330.78 555.436 330.78L544.492 327.259L541.856 339.899L532.483 329.624L525.801 335.15C518.74 325.94 522.948 320.035 522.948 320.035L532.483 325.706L538.388 328.523L539.056 323.629L547.363 303.186L559.824 307.18Z" fill="white"/>
<path opacity="0.2" d="M555.456 330.783L544.512 327.262L541.875 339.849L541.297 324.029L555.456 330.783Z" fill="black"/>
<path opacity="0.2" d="M541.874 339.848L532.502 329.573L525.82 335.099L530.588 326.575L541.874 339.848Z" fill="black"/>
<path d="M496.366 359.587L482.366 358.016C480.425 356.444 478.132 355.366 475.684 354.874C468.811 354.755 461.942 355.287 455.169 356.463C453.363 357.163 454.013 371.669 455.169 371.921C456.325 372.173 474.293 372.372 475.919 371.921C477.545 371.47 481.445 367.081 481.445 367.081L493.707 369.248L496.366 359.587Z" fill="#D59550"/>
<path d="M586.641 308.986C580.862 310.16 554.135 360.923 554.135 360.923L485.349 357.567L484.32 369.341C484.32 369.341 545.955 382.759 559.842 380.176C573.729 377.593 598.777 334.252 600.276 329.485C603.689 318.629 590.524 308.191 586.641 308.986Z" fill="#1664A3"/>
<path opacity="0.6" d="M586.641 308.986C580.862 310.16 554.135 360.923 554.135 360.923L485.349 357.567L484.32 369.341C484.32 369.341 545.955 382.759 559.842 380.176C573.729 377.593 598.777 334.252 600.276 329.485C603.689 318.629 590.524 308.191 586.641 308.986Z" fill="white"/>
<path d="M207.821 375.425V369.52H203.866L207.821 367.208H204.859L208.814 364.626H212.57V361.646H208.218L212.57 359.912V353.465H208.218V349.257H203.866L208.218 347.794V344.794H205.094L207.64 342.248L209.861 340.027H277.361V343.061H281.822L276.856 345.282V347.792H285.956V352.44H289.983L285.956 354.463V359.663H283.103V362.137H277.36V369.523H280.576L277.939 372.16V375.44L207.821 375.425Z" fill="#1664A3"/>
<path opacity="0.7" d="M207.821 375.425V369.52H203.866L207.821 367.208H204.859L208.814 364.626H212.57V361.646H208.218L212.57 359.912V353.465H208.218V349.257H203.866L208.218 347.794V344.794H205.094L207.64 342.248L209.861 340.027H277.361V343.061H281.822L276.856 345.282V347.792H285.956V352.44H289.983L285.956 354.463V359.663H283.103V362.137H277.36V369.523H280.576L277.939 372.16V375.44L207.821 375.425Z" fill="white"/>
<path opacity="0.1" d="M207.821 375.425V369.52H203.866L207.821 367.208H204.859L208.814 364.626H212.57V361.646H208.218L212.57 359.912V353.465H208.218V349.257H203.866L208.218 347.794V344.794H205.094L207.64 342.248L209.861 340.027H245.419V343.061H249.876L244.91 345.282V347.792H254.01V352.44H258.037L254.01 354.463V359.663H251.157V362.137H245.414V369.523H248.628L245.991 372.16V375.44L207.821 375.425Z" fill="black"/>
<path opacity="0.1" d="M276.86 347.795H244.914L276.86 346.639V347.795Z" fill="black"/>
<path opacity="0.1" d="M277.366 362.134H245.419L245.275 364.373L277.366 362.134Z" fill="black"/>
<path opacity="0.1" d="M283.108 359.66H251.162L283.108 360.78V359.66Z" fill="black"/>
<path opacity="0.1" d="M277.365 369.52H245.419L277.365 368.328V369.52Z" fill="black"/>
<path opacity="0.1" d="M277.943 372.157H245.997V373.367L277.943 372.157Z" fill="black"/>
<path opacity="0.1" d="M285.961 352.436H254.015L285.961 351.425V352.436Z" fill="black"/>
<path opacity="0.1" d="M277.365 343.064H245.419L277.365 341.944V343.064Z" fill="black"/>
<path opacity="0.1" d="M208.218 344.797H240.618L208.218 345.79V344.797Z" fill="black"/>
<path opacity="0.1" d="M244.918 347.795H208.218L241.482 348.879L244.918 347.795Z" fill="black"/>
<path opacity="0.1" d="M254.018 352.436L208.218 353.465V352.436H254.018Z" fill="black"/>
<path opacity="0.1" d="M254.016 354.459H231.37L254.016 355.579V354.459Z" fill="black"/>
<path opacity="0.1" d="M212.57 359.912L245.419 359.659L212.57 358.919V359.912Z" fill="black"/>
<path opacity="0.1" d="M212.57 361.646H245.997L212.57 362.766V361.646Z" fill="black"/>
<path opacity="0.1" d="M207.821 367.208H244.914V368.328L207.821 367.208Z" fill="black"/>
<path opacity="0.1" d="M207.821 369.52H234.711L207.821 370.26V369.52Z" fill="black"/>
<path d="M396.789 376.563L398.27 370.963H459.219L487.282 373.763L488.347 376.563H396.789Z" fill="#263238"/>
<path opacity="0.4" d="M459.218 370.965V376.565H396.789L398.27 370.965H459.218Z" fill="black"/>
<path d="M265.574 308.806L278.919 369.306C279.159 370.279 279.714 371.145 280.498 371.769C281.282 372.393 282.251 372.74 283.253 372.755H326.396C326.851 372.744 327.297 372.628 327.7 372.416C328.102 372.204 328.45 371.902 328.716 371.533C328.982 371.163 329.159 370.738 329.233 370.289C329.306 369.84 329.275 369.38 329.141 368.945L315.814 308.917C315.543 307.998 314.963 307.201 314.173 306.661C313.382 306.121 312.428 305.871 311.474 305.953H268.336C266.367 306.007 265.139 306.892 265.574 308.806Z" fill="#263238"/>
<path opacity="0.4" d="M268.047 308.806L281.374 369.306C281.614 370.279 282.169 371.145 282.953 371.769C283.737 372.394 284.706 372.74 285.708 372.755H326.395C326.849 372.741 327.293 372.623 327.693 372.41C328.094 372.196 328.44 371.894 328.706 371.526C328.971 371.158 329.148 370.734 329.223 370.286C329.299 369.839 329.27 369.38 329.14 368.945L315.813 308.917C315.542 308 314.963 307.204 314.173 306.664C313.384 306.125 312.432 305.874 311.479 305.955H270.878C268.841 306.007 267.613 306.892 268.047 308.806Z" fill="white"/>
<path d="M286.07 368.816V374.432C286.07 375.859 287.77 376.455 289.176 376.455H389.005C390.432 376.455 392.165 375.855 392.165 374.432V368.816H286.07Z" fill="#263238"/>
<path opacity="0.2" d="M392.166 368.816V374.432C392.166 375.859 390.466 376.455 389.06 376.455H289.248C287.803 376.455 286.07 375.855 286.07 374.432V368.816H392.166Z" fill="white"/>
<path opacity="0.4" d="M392.165 368.816V374.432C392.165 375.859 390.465 376.455 389.059 376.455H343.117C341.672 376.455 339.957 375.855 339.957 374.432V368.816H392.165Z" fill="black"/>
<path d="M326.72 364.373L314.603 309.89H270.467L282.476 364.373H326.72Z" fill="#1664A3"/>
<path d="M446.974 344.129C447.063 344.813 447.003 345.507 446.8 346.166C446.596 346.824 446.253 347.431 445.794 347.945C445.335 348.459 444.77 348.869 444.138 349.145C443.507 349.421 442.823 349.558 442.134 349.547H348.77C347.3 349.517 345.893 348.949 344.814 347.951C343.736 346.952 343.061 345.592 342.919 344.129L337.375 284.354C337.303 283.75 337.34 283.139 337.483 282.548C337.748 281.5 338.36 280.573 339.219 279.917C340.078 279.261 341.133 278.915 342.214 278.936H435.579C437.049 278.966 438.456 279.534 439.535 280.532C440.613 281.531 441.288 282.891 441.43 284.354L446.974 344.129Z" fill="#263238"/>
<path opacity="0.4" d="M441.791 349.492H348.77C347.3 349.462 345.893 348.894 344.814 347.896C343.736 346.897 343.061 345.537 342.919 344.074L337.375 284.299C337.303 283.695 337.34 283.084 337.483 282.493H430.522C431.99 282.529 433.393 283.1 434.471 284.097C435.548 285.095 436.224 286.451 436.373 287.911L441.917 347.686C441.984 348.291 441.941 348.902 441.791 349.492V349.492Z" fill="black"/>
<path d="M377.646 312.833H396.969L391.822 368.133L422.36 372.72V376.566H358.034V372.72L371.217 368.133L377.646 312.833Z" fill="#263238"/>
<path opacity="0.1" d="M396.969 312.833L382.669 375.696L371.22 375.353L377.649 312.833H396.969Z" fill="white"/>
<path d="M332.534 655.969H321.845L302.594 388.211H316.806L332.534 655.969Z" fill="#263238"/>
<path opacity="0.1" d="M332.554 655.969H321.845L303.551 401.502L302.594 388.626H316.806L317.564 401.502L332.554 655.969Z" fill="white"/>
<path opacity="0.2" d="M317.565 400.87H303.551L302.594 388.626H316.806L317.565 400.87Z" fill="black"/>
<path d="M463.516 655.969H452.807L451.073 388.211H465.267L463.516 655.969Z" fill="#263238"/>
<path opacity="0.1" d="M465.267 388.626L464.996 431.841L463.533 655.969H452.807L451.344 431.841L451.073 388.626H465.267Z" fill="white"/>
<path opacity="0.2" d="M465.267 388.626L464.996 432.31H451.344L451.073 388.626H465.267Z" fill="black"/>
<path d="M577.161 655.969H566.47L547.219 388.211H561.431L577.161 655.969Z" fill="#263238"/>
<path opacity="0.1" d="M577.179 655.969H566.47L548.158 401.502L547.219 388.626H561.431L562.189 401.502L577.179 655.969Z" fill="white"/>
<path opacity="0.2" d="M562.19 400.87H548.158L547.219 388.626H561.431L562.19 400.87Z" fill="black"/>
<path d="M210.077 655.969H199.387L215.116 388.211H229.31L210.077 655.969Z" fill="#263238"/>
<path opacity="0.1" d="M229.31 388.626L228.371 401.502L210.077 655.969H199.387L214.34 401.502L215.117 388.626H229.31Z" fill="white"/>
<path opacity="0.2" d="M215.117 388.626H229.311L228.372 400.87H214.34L215.117 388.626Z" fill="black"/>
<path d="M203.866 381.493H572.682V390.993C572.682 392.027 572.271 393.019 571.54 393.751C570.808 394.482 569.816 394.893 568.782 394.893H207.682C206.648 394.893 205.656 394.482 204.924 393.751C204.193 393.019 203.782 392.027 203.782 390.993V381.493H203.866Z" fill="#1664A3"/>
<path opacity="0.4" d="M203.866 381.493H572.682V390.993C572.682 392.027 572.271 393.019 571.54 393.751C570.808 394.482 569.816 394.893 568.782 394.893H207.682C206.648 394.893 205.656 394.482 204.924 393.751C204.193 393.019 203.782 392.027 203.782 390.993V381.493H203.866Z" fill="white"/>
<path opacity="0.2" d="M572.7 381.493H203.866V388.193H572.7V381.493Z" fill="black"/>
<path d="M579.326 383.245H197.22C196.221 383.24 195.263 382.841 194.557 382.134C193.85 381.428 193.451 380.471 193.446 379.471C193.446 378.47 193.844 377.51 194.551 376.802C195.259 376.095 196.219 375.697 197.22 375.697H579.326C580.327 375.697 581.287 376.095 581.995 376.802C582.702 377.51 583.1 378.47 583.1 379.471C583.095 380.471 582.696 381.428 581.989 382.134C581.283 382.841 580.326 383.24 579.326 383.245V383.245Z" fill="#1664A3"/>
<path opacity="0.4" d="M579.326 383.245H197.22C196.221 383.24 195.263 382.841 194.557 382.134C193.85 381.428 193.451 380.471 193.446 379.471C193.446 378.47 193.844 377.51 194.551 376.802C195.259 376.095 196.219 375.697 197.22 375.697H579.326C580.327 375.697 581.287 376.095 581.995 376.802C582.702 377.51 583.1 378.47 583.1 379.471C583.095 380.471 582.696 381.428 581.989 382.134C581.283 382.841 580.326 383.24 579.326 383.245V383.245Z" fill="white"/>
<path d="M486.898 358.649V359.913L482.546 361.647H486.898V364.627H483.142L479.169 367.209H482.149L478.194 369.521H482.149V375.426L552.271 375.444V372.157L554.908 369.52H551.675V362.134H557.436V359.66H560.298V358.649H486.898Z" fill="#1664A3"/>
<path opacity="0.9" d="M486.898 358.649V359.913L482.546 361.647H486.898V364.627H483.142L479.169 367.209H482.149L478.194 369.521H482.149V375.426L552.271 375.444V372.157L554.908 369.52H551.675V362.134H557.436V359.66H560.298V358.649H486.898Z" fill="white"/>
<path opacity="0.1" d="M486.898 358.649V359.913L482.546 361.647H486.898V364.627H483.142L479.169 367.209H482.149L478.194 369.521H482.149V375.426L520.325 375.444V372.157L522.962 369.52H519.729V362.134H525.498V359.66H528.351V358.649H486.898Z" fill="black"/>
<path opacity="0.1" d="M551.677 362.134H519.733L519.607 364.373L551.677 362.134Z" fill="black"/>
<path opacity="0.1" d="M557.44 359.66H525.494L557.44 360.78V359.66Z" fill="black"/>
<path opacity="0.1" d="M551.679 369.52H519.733L551.679 368.328V369.52Z" fill="black"/>
<path opacity="0.1" d="M552.275 372.157H520.329V373.367L552.275 372.157Z" fill="black"/>
<path opacity="0.1" d="M486.902 359.912L519.733 359.659L486.902 358.919V359.912Z" fill="black"/>
<path opacity="0.1" d="M486.902 361.646H520.329L486.902 362.766V361.646Z" fill="black"/>
<path opacity="0.1" d="M482.153 367.208H519.246V368.328L482.153 367.208Z" fill="black"/>
<path opacity="0.1" d="M482.153 369.52H509.025L482.153 370.26V369.52Z" fill="black"/>
</svg>
